<svg width="22" height="22" viewBox="0 0 22 22" fill="none" xmlns="http://www.w3.org/2000/svg">
<path d="M19.5368 16.138C18.8524 15.4531 18.0527 14.894 17.1743 14.4865C18.413 13.483 19.2032 11.9517 19.2032 10.2345C19.2032 7.20484 16.6766 4.71929 13.6469 4.76578C10.6637 4.81226 8.26022 7.24312 8.26022 10.2345C8.26022 11.9517 9.05319 13.483 10.2891 14.4865C9.41059 14.8937 8.61083 15.4528 7.92663 16.138C6.43366 17.6337 5.58601 19.608 5.53132 21.7134C5.53059 21.7426 5.53571 21.7717 5.54637 21.7988C5.55704 21.826 5.57304 21.8508 5.59342 21.8717C5.61381 21.8926 5.63817 21.9092 5.66507 21.9205C5.69198 21.9318 5.72088 21.9377 5.75007 21.9377H7.28132C7.3989 21.9377 7.49733 21.8447 7.50007 21.7271C7.55202 20.1412 8.1946 18.6564 9.3239 17.5298C9.90178 16.9489 10.5891 16.4883 11.3462 16.1748C12.1033 15.8613 12.915 15.701 13.7344 15.7033C15.3997 15.7033 16.9665 16.3513 18.145 17.5298C19.2716 18.6564 19.9141 20.1412 19.9688 21.7271C19.9716 21.8447 20.07 21.9377 20.1876 21.9377H21.7188C21.748 21.9377 21.7769 21.9318 21.8038 21.9205C21.8307 21.9092 21.8551 21.8926 21.8755 21.8717C21.8958 21.8508 21.9118 21.826 21.9225 21.7988C21.9332 21.7717 21.9383 21.7426 21.9376 21.7134C21.8829 19.608 21.0352 17.6337 19.5368 16.138ZM13.7344 13.7345C12.7993 13.7345 11.9188 13.3709 11.2598 12.7091C10.9291 12.381 10.6679 11.9897 10.4917 11.5584C10.3155 11.1271 10.228 10.6648 10.2344 10.199C10.2426 9.30211 10.6008 8.43531 11.227 7.79273C11.8833 7.12008 12.761 6.74547 13.6989 6.73453C14.6258 6.72633 15.5255 7.08726 16.1872 7.73531C16.8653 8.39976 17.2372 9.28843 17.2372 10.2345C17.2372 11.1697 16.8735 12.0474 16.2118 12.7091C15.8871 13.0353 15.501 13.2939 15.0758 13.4699C14.6506 13.6459 14.1947 13.7359 13.7344 13.7345ZM6.88483 10.9564C6.86022 10.7185 6.84655 10.4779 6.84655 10.2345C6.84655 9.79976 6.88757 9.37593 6.96413 8.96304C6.98327 8.86461 6.93132 8.76344 6.84108 8.72242C6.46921 8.55562 6.12741 8.32593 5.8321 8.03609C5.48412 7.69869 5.2103 7.29246 5.0281 6.84331C4.8459 6.39417 4.75932 5.91197 4.7739 5.4275C4.79851 4.54976 5.15124 3.71578 5.76647 3.08687C6.44187 2.39508 7.34968 2.01773 8.31491 2.02867C9.18718 2.03687 10.0294 2.3732 10.6665 2.96929C10.8825 3.17164 11.0684 3.39586 11.2243 3.63648C11.279 3.72125 11.3856 3.75679 11.4786 3.72398C11.9598 3.55718 12.4684 3.43961 12.9907 3.38492C13.1438 3.36851 13.2313 3.20445 13.163 3.06773C12.2743 1.30953 10.4587 0.0954658 8.35866 0.0626533C5.32624 0.0161689 2.79968 2.50172 2.79968 5.52867C2.79968 7.24586 3.58991 8.77711 4.82858 9.78062C3.95905 10.1826 3.15788 10.7377 2.46335 11.4322C0.964912 12.9279 0.117256 14.9021 0.0625684 17.0103C0.0618386 17.0395 0.0669574 17.0685 0.0776234 17.0957C0.0882894 17.1229 0.104287 17.1476 0.124673 17.1685C0.145059 17.1894 0.169421 17.206 0.196324 17.2174C0.223227 17.2287 0.252126 17.2345 0.281318 17.2345H1.8153C1.93288 17.2345 2.03132 17.1416 2.03405 17.024C2.08601 15.438 2.72858 13.9533 3.85788 12.8267C4.66179 12.0228 5.64616 11.465 6.72077 11.1943C6.82741 11.1669 6.89851 11.0658 6.88483 10.9564Z" fill="#EAE8E8"/>
</svg>
