<svg width="18" height="14" viewBox="0 0 18 14" fill="none" xmlns="http://www.w3.org/2000/svg">
<path d="M17.4024 6.49609C15.5509 2.5957 12.752 0.632812 9.00008 0.632812C5.24618 0.632812 2.4493 2.5957 0.597739 6.49805C0.523472 6.65531 0.484955 6.82706 0.484955 7.00098C0.484955 7.17489 0.523472 7.34665 0.597739 7.50391C2.4493 11.4043 5.24813 13.3672 9.00008 13.3672C12.754 13.3672 15.5509 11.4043 17.4024 7.50195C17.5528 7.18555 17.5528 6.81836 17.4024 6.49609ZM9.00008 11.9609C5.84969 11.9609 3.54305 10.3633 1.9161 7C3.54305 3.63672 5.84969 2.03906 9.00008 2.03906C12.1505 2.03906 14.4571 3.63672 16.0841 7C14.4591 10.3633 12.1524 11.9609 9.00008 11.9609ZM8.92196 3.5625C7.02352 3.5625 5.48446 5.10156 5.48446 7C5.48446 8.89844 7.02352 10.4375 8.92196 10.4375C10.8204 10.4375 12.3595 8.89844 12.3595 7C12.3595 5.10156 10.8204 3.5625 8.92196 3.5625ZM8.92196 9.1875C7.71297 9.1875 6.73446 8.20898 6.73446 7C6.73446 5.79102 7.71297 4.8125 8.92196 4.8125C10.1309 4.8125 11.1095 5.79102 11.1095 7C11.1095 8.20898 10.1309 9.1875 8.92196 9.1875Z" fill="#0666AB"/>
</svg>
