<svg width="16" height="16" viewBox="0 0 16 16" fill="none" xmlns="http://www.w3.org/2000/svg">
<path d="M8 0.125C3.65117 0.125 0.125 3.65117 0.125 8C0.125 12.3488 3.65117 15.875 8 15.875C12.3488 15.875 15.875 12.3488 15.875 8C15.875 3.65117 12.3488 0.125 8 0.125ZM8 14.5391C4.38945 14.5391 1.46094 11.6105 1.46094 8C1.46094 4.38945 4.38945 1.46094 8 1.46094C11.6105 1.46094 14.5391 4.38945 14.5391 8C14.5391 11.6105 11.6105 14.5391 8 14.5391ZM8.83848 7.59219L8.39199 7.48848V5.12773C9.05996 5.21914 9.47305 5.6375 9.54336 6.15078C9.55215 6.22109 9.61191 6.27207 9.68223 6.27207H10.4715C10.5541 6.27207 10.6191 6.2 10.6121 6.11738C10.5049 5.02227 9.60313 4.31914 8.39902 4.19785V3.62305C8.39902 3.5457 8.33574 3.48242 8.2584 3.48242H7.76445C7.68711 3.48242 7.62383 3.5457 7.62383 3.62305V4.20312C6.3793 4.32441 5.40547 5.01172 5.40547 6.29492C5.40547 7.4832 6.28086 8.05625 7.2002 8.27598L7.63438 8.38672V10.8951C6.85742 10.7914 6.42148 10.3766 6.33184 9.81758C6.32129 9.75078 6.26152 9.70156 6.19297 9.70156H5.38086C5.29824 9.70156 5.2332 9.77188 5.24023 9.85449C5.31934 10.8213 6.05234 11.7107 7.6168 11.825V12.377C7.6168 12.4543 7.68008 12.5176 7.75742 12.5176H8.25664C8.33398 12.5176 8.39727 12.4543 8.39727 12.3752L8.39375 11.818C9.77012 11.6967 10.7545 10.9602 10.7545 9.63828C10.7527 8.41836 9.97754 7.87344 8.83848 7.59219ZM7.63262 7.30742C7.53418 7.2793 7.45156 7.25293 7.36895 7.21953C6.7748 7.00508 6.49883 6.65879 6.49883 6.2123C6.49883 5.57422 6.98223 5.21035 7.63262 5.12773V7.30742ZM8.39199 10.9004V8.55019C8.44648 8.56602 8.4957 8.57832 8.54668 8.58887C9.37812 8.84199 9.65762 9.19355 9.65762 9.7332C9.65762 10.4205 9.14082 10.8336 8.39199 10.9004Z" fill="#0666AB"/>
</svg>
