<svg width="20" height="20" viewBox="0 0 20 20" fill="none" xmlns="http://www.w3.org/2000/svg">
<path d="M19.4062 6.28125H13.7188V0.59375C13.7188 0.353125 13.5219 0.15625 13.2812 0.15625H0.59375C0.353125 0.15625 0.15625 0.353125 0.15625 0.59375V13.2812C0.15625 13.5219 0.353125 13.7188 0.59375 13.7188H6.28125V19.4062C6.28125 19.6469 6.47813 19.8438 6.71875 19.8438H19.4062C19.6469 19.8438 19.8438 19.6469 19.8438 19.4062V6.71875C19.8438 6.47813 19.6469 6.28125 19.4062 6.28125ZM6.28125 6.71875V11.8594H2.01562V2.01562H11.8594V6.28125H6.71875C6.47813 6.28125 6.28125 6.47813 6.28125 6.71875ZM11.8594 8.14062V11.8594H8.14062V8.14062H11.8594ZM17.9844 17.9844H8.14062V13.7188H13.2812C13.5219 13.7188 13.7188 13.5219 13.7188 13.2812V8.14062H17.9844V17.9844Z" fill="#EAE8E8"/>
</svg>
