<svg width="20" height="20" viewBox="0 0 20 20" fill="none" xmlns="http://www.w3.org/2000/svg">
<path d="M18.625 0.625C18.5359 0.625 18.4445 0.641406 18.3531 0.678906L4.84375 6.10703H1C0.79375 6.10703 0.625 6.28047 0.625 6.49609V13.5039C0.625 13.7195 0.79375 13.893 1 13.893H3.38359C3.29687 14.1648 3.25 14.4531 3.25 14.7461C3.25 16.2906 4.51094 17.5469 6.0625 17.5469C7.36094 17.5469 8.45547 16.6656 8.77891 15.475L18.3555 19.3234C18.4469 19.3586 18.5383 19.3773 18.6273 19.3773C19.0234 19.3773 19.3773 19.0445 19.3773 18.5992V1.40312C19.375 0.957812 19.0234 0.625 18.625 0.625ZM6.0625 15.8664C5.44141 15.8664 4.9375 15.3648 4.9375 14.7461C4.9375 14.4836 5.02891 14.2328 5.19531 14.0336L7.18516 14.8328C7.13828 15.4094 6.65312 15.8664 6.0625 15.8664ZM17.6875 17.2352L5.47187 12.3273L5.16953 12.2055H2.3125V7.79453H5.16953L5.47187 7.67266L17.6875 2.76484V17.2352Z" fill="#F2F2F2"/>
</svg>
