<svg width="19" height="18" viewBox="0 0 19 18" fill="none" xmlns="http://www.w3.org/2000/svg">
<path d="M18.0469 3.60225V0.72C18.0469 0.32175 17.7117 0 17.2969 0H1.45314C1.0383 0 0.70314 0.32175 0.70314 0.72V3.60225C0.311733 3.62475 1.45217e-05 3.9375 1.45217e-05 4.32V7.28325C-0.00148643 7.82785 0.11338 8.36696 0.337515 8.86725C0.438296 9.09675 0.562515 9.31275 0.70314 9.5175V17.28C0.70314 17.676 1.0383 18 1.45314 18H17.2969C17.7117 18 18.0469 17.6782 18.0469 17.28V9.5175C18.1897 9.31223 18.3121 9.09452 18.4125 8.86725C18.6352 8.3655 18.75 7.83225 18.75 7.28325V4.32C18.75 3.9375 18.4383 3.62475 18.0469 3.60225ZM2.39064 1.62H16.3594V3.6H2.39064V1.62ZM10.875 16.3822H7.87501V14.04H10.875V16.3822ZM16.3594 16.3822H12.375V13.32C12.375 12.9218 12.0399 12.6 11.625 12.6H7.12501C6.71017 12.6 6.37501 12.9218 6.37501 13.32V16.3822H2.39064V10.9328C2.45861 10.9643 2.52892 10.9958 2.60158 11.0227C3.12423 11.2343 3.6797 11.34 4.25158 11.34C4.82345 11.34 5.37658 11.2343 5.90158 11.0227C6.22502 10.8923 6.5297 10.7257 6.80861 10.5255C6.8133 10.5232 6.81798 10.5232 6.82267 10.5255C7.10244 10.7266 7.40711 10.8936 7.7297 11.0227C8.25236 11.2343 8.80783 11.34 9.3797 11.34C9.95158 11.34 10.5047 11.2343 11.0297 11.0227C11.3531 10.8923 11.6578 10.7257 11.9367 10.5255C11.9414 10.5232 11.9461 10.5232 11.9508 10.5255C12.2306 10.7266 12.5352 10.8936 12.8578 11.0227C13.3805 11.2343 13.936 11.34 14.5078 11.34C15.0797 11.34 15.6328 11.2343 16.1578 11.0227C16.2281 10.9935 16.2985 10.9643 16.3688 10.9328V16.3822H16.3594ZM17.0625 7.28325C17.0625 8.62875 15.9141 9.72 14.5008 9.72C13.5445 9.72 12.7102 9.22275 12.2695 8.48475C12.2016 8.37225 12.0797 8.3025 11.9438 8.3025H11.9297C11.7961 8.3025 11.6719 8.37225 11.6039 8.48475C11.3791 8.86121 11.0544 9.17381 10.6629 9.39077C10.2714 9.60774 9.82706 9.72133 9.37502 9.72C8.42111 9.72 7.58908 9.225 7.14845 8.48925C7.07814 8.3745 6.95158 8.3025 6.8133 8.3025C6.67501 8.3025 6.54611 8.3745 6.47814 8.48925C6.25197 8.86427 5.92688 9.17548 5.53559 9.39154C5.1443 9.6076 4.70063 9.72089 4.24923 9.72C2.83595 9.72 1.68751 8.62875 1.68751 7.28325V5.23125C1.68751 5.2245 1.6922 5.22 1.69923 5.22H17.0508C17.0578 5.22 17.0625 5.2245 17.0625 5.23125V7.28325Z" fill="#F2F2F2"/>
</svg>
