<svg width="14" height="16" viewBox="0 0 14 16" fill="none" xmlns="http://www.w3.org/2000/svg">
<path d="M8.1127 8L13.7523 1.27754C13.8469 1.16582 13.7674 0.996094 13.6213 0.996094H11.9068C11.8059 0.996094 11.7092 1.04121 11.6426 1.11855L6.99121 6.66367L2.33985 1.11855C2.27539 1.04121 2.17871 0.996094 2.07559 0.996094H0.361134C0.21504 0.996094 0.135548 1.16582 0.230079 1.27754L5.86973 8L0.230079 14.7225C0.208903 14.7474 0.195318 14.7778 0.190936 14.8102C0.186554 14.8426 0.191559 14.8756 0.205358 14.9052C0.219157 14.9348 0.241169 14.9599 0.268781 14.9774C0.296394 14.9949 0.328446 15.0041 0.361134 15.0039H2.07559C2.17656 15.0039 2.27324 14.9588 2.33985 14.8814L6.99121 9.33633L11.6426 14.8814C11.707 14.9588 11.8037 15.0039 11.9068 15.0039H13.6213C13.7674 15.0039 13.8469 14.8342 13.7523 14.7225L8.1127 8Z" fill="#0666AB"/>
</svg>
